{"title":"AssesInPublic - Tricia Oaks (Public fun with Tricia)","uid":10833433,"size":467064097,"categoryP":"porn","categoryS":"movie_clips","magnet":"?xt=urn:btih:24a51fe908694b5aca52b8ed9304453bcfaa9d93&amp;dn=AssesInPublic+-+Tricia+Oaks+%28Public+fun+with+Tricia%29&amp;tr=udp%3A%2F%2Ftracker.openbittorrent.com%3A80&amp;tr=udp%3A%2F%2Fopen.demonii.com%3A1337&amp;tr=udp%3A%2F%2Ftracker.coppersurfer.tk%3A6969&amp;tr=udp%3A%2F%2Fexodus.desync.com%3A6969","seeders":2,"leechers":0,"uploader":"ThousandPeers","files":-1,"time":1408649030,"description":"Format                                   : Windows Media\nFile size                                : 445 MiB\nDuration                                 : 45mn 29s\nOverall bit rate mode                    : Constant\nOverall bit rate                         : 1 367 Kbps\nMaximum Overall bit rate                 : 1 379 Kbps\nEncoded date                             : UTC 2007-11-23 15:50:47.656\n\nVideo\nID                                       : 2\nFormat                                   : WMV2\nCodec ID                                 : WMV2\nCodec ID/Info                            : Windows Media Video 8\nDescription of the codec                 : Windows Media Video V8\nDuration                                 : 45mn 29s\nBit rate mode                            : Constant\nBit rate                                 : 1 300 Kbps\nWidth                                    : 640 pixels\nHeight                                   : 480 pixels\nDisplay aspect ratio                     : 4:3\nFrame rate                               : 29.970 fps\nBit depth                                : 8 bits\nBits/(Pixel*Frame)                       : 0.141\nStream size                              : 423 MiB (95%)\nLanguage                                 : English (CA)\n\nAudio\nID                                       : 1\nFormat                                   : WMA\nFormat version                           : Version 2\nCodec ID                                 : 161\nCodec ID/Info                            : Windows Media Audio\nDescription of the codec                 : Windows Media Audio 9.1 -  64 kbps, 44 kHz, stereo (A/V) 1-pass CBR\nDuration                                 : 45mn 29s\nBit rate mode                            : Constant\nBit rate                                 : 64.0 Kbps\nChannel(s)                               : 2 channels\nSampling rate                            : 44.1 KHz\nBit depth                                : 16 bits\nStream size                              : 20.8 MiB (5%)\nLanguage                                 : English (CA)","torrent":{"xt":"urn:btih:24a51fe908694b5aca52b8ed9304453bcfaa9d93","amp;dn":"AssesInPublic+-+Tricia+Oaks+%28Public+fun+with+Tricia%29","amp;tr":["udp%3A%2F%2Ftracker.openbittorrent.com%3A80","udp%3A%2F%2Fopen.demonii.com%3A1337","udp%3A%2F%2Ftracker.coppersurfer.tk%3A6969","udp%3A%2F%2Fexodus.desync.com%3A6969"],"infoHash":"24a51fe908694b5aca52b8ed9304453bcfaa9d93","infoHashBuffer":{"type":"Buffer","data":[36,165,31,233,8,105,75,90,202,82,184,237,147,4,69,59,207,170,157,147]},"announce":[],"urlList":[]}}